<svg width="140" height="140" viewBox="0 0 140 140" fill="none" xmlns="http://www.w3.org/2000/svg">
<circle cx="70" cy="70" r="70" fill="#FF5A00"/>
<mask id="mask0_300_910" style="mask-type:alpha" maskUnits="userSpaceOnUse" x="0" y="0" width="140" height="140">
<circle cx="70" cy="70" r="70" fill="#FF5A00"/>
</mask>
<g mask="url(#mask0_300_910)">
<path d="M-40.4199 -46.58H-19.9199V-144.08H-38.9199C-55.2532 -144.08 -69.0866 -139.747 -80.4199 -131.08C-91.4199 -122.413 -96.9199 -110.08 -96.9199 -94.08C-96.9199 -78.08 -91.5866 -66.08 -80.9199 -58.08C-70.2532 -50.4133 -56.7532 -46.58 -40.4199 -46.58ZM-67.9199 -5.07996C-73.5866 9.58671 -78.4199 24.5867 -82.4199 39.92C-88.4199 58.5867 -95.9199 72.5867 -104.92 81.92C-113.92 91.2534 -127.253 95.92 -144.92 95.92C-156.92 95.92 -166.92 93.5867 -174.92 88.92C-182.587 84.5867 -188.087 78.0867 -191.42 69.42C-194.753 60.42 -196.92 51.92 -197.92 43.92C-198.92 35.5867 -199.42 25.2534 -199.42 12.92H-181.42C-181.42 49.92 -176.253 68.42 -165.92 68.42C-163.253 68.42 -160.92 67.2534 -158.92 64.92C-157.253 62.5867 -153.42 51.7534 -147.42 32.42C-142.087 13.7534 -135.42 0.420038 -127.42 -7.57996C-119.753 -14.9133 -102.42 -23.7466 -75.4199 -34.08C-86.4199 -34.7466 -96.7533 -36.08 -106.42 -38.08C-116.087 -40.4133 -125.753 -43.7466 -135.42 -48.08C-145.087 -52.4133 -152.753 -58.7466 -158.42 -67.08C-164.087 -75.4133 -166.92 -85.2466 -166.92 -96.58C-166.92 -109.58 -163.253 -120.747 -155.92 -130.08C-148.253 -139.413 -138.253 -146.247 -125.92 -150.58C-113.587 -155.247 -101.587 -158.413 -89.9199 -160.08C-78.2532 -162.08 -66.2532 -163.08 -53.9199 -163.08H85.0801V-144.08H48.5801V70.42H85.0801V88.92H-55.4199V70.42H-19.9199V-29.08H-30.9199C-46.9199 -29.08 -59.2533 -21.08 -67.9199 -5.07996Z" fill="#FAEAD3"/>
</g>
</svg>
