<svg width="125" height="125" viewBox="0 0 125 125" fill="none" xmlns="http://www.w3.org/2000/svg">
<ellipse cx="62.5601" cy="62.652" rx="62.44" ry="62.3479" fill="#FF5A00"/>
<mask id="mask0_300_854" style="mask-type:alpha" maskUnits="userSpaceOnUse" x="0" y="0" width="125" height="125">
<ellipse cx="62.44" cy="62.3479" rx="62.44" ry="62.3479" fill="#FF5A00"/>
</mask>
<g mask="url(#mask0_300_854)">
<path d="M220 244.3C187 244.3 169.3 226.15 166.9 189.85C161.8 206.95 152.5 220.3 139 229.9C125.8 239.5 110.2 244.3 92.2 244.3C73.3 244.3 57.85 239.95 45.85 231.25C34.15 222.25 28.3 208.6 28.3 190.3C28.3 178.6 31.45 168.4 37.75 159.7C44.05 150.7 53.05 143.5 64.75 138.1C76.45 132.4 86.8 128.2 95.8 125.5C104.8 122.8 115.75 120.1 128.65 117.4L161.05 110.65V78.7C161.05 61 157.45 47.65 150.25 38.65C143.05 29.35 130.9 24.7 113.8 24.7C98.5 24.7 85.45 28.9 74.65 37.3C92.35 41.5 101.2 52.45 101.2 70.15C101.2 80.35 98.2 88.3 92.2 94C86.2 99.7 78.1 102.55 67.9 102.55C57.7 102.55 49.6 99.7 43.6 94C37.6 88.3 34.6 80.35 34.6 70.15C34.6 59.05 37.9 49.15 44.5 40.45C51.4 31.75 59.95 25 70.15 20.2C80.65 15.1 91.3 11.35 102.1 8.95C113.2 6.54999 123.85 5.34999 134.05 5.34999C162.85 5.34999 184.75 10.75 199.75 21.55C215.05 32.35 222.7 51.4 222.7 78.7V198.4C222.7 205.3 224.05 210.55 226.75 214.15C228.85 217.75 232.45 219.55 237.55 219.55C250.45 219.55 256.9 202.9 256.9 169.6H272.65C272.65 180.7 272.05 190.15 270.85 197.95C269.65 205.75 267.25 213.55 263.65 221.35C260.35 228.85 254.95 234.55 247.45 238.45C240.25 242.35 231.1 244.3 220 244.3ZM90.85 180.85C90.85 191.35 93.25 199 98.05 203.8C102.55 209.2 109.3 211.9 118.3 211.9C133.9 211.9 144.85 205 151.15 191.2C157.75 177.4 161.05 161.65 161.05 143.95V125.05L136.75 131.8C121.75 135.7 110.35 141.4 102.55 148.9C94.75 156.1 90.85 166.75 90.85 180.85Z" fill="#FAEAD3"/>
</g>
</svg>
