<svg width="1440" height="1358" viewBox="0 0 1440 1358" fill="none" xmlns="http://www.w3.org/2000/svg">
<path d="M1261.43 1268.69L1280.44 878.265H1371L1363.61 1259.53L1261.43 1268.69Z" fill="#63A486"/>
<path d="M1150.47 1280.14L1171.6 862.236L1260.76 871.396L1253.36 1268.69L1150.47 1280.14Z" fill="#63A486"/>
<path d="M1041.68 1288.16L1062.8 839.337L1157.47 854.221L1140.57 1280.14L1041.68 1288.16Z" fill="#63A486"/>
<path d="M937.057 1297.32L955.013 815.293L1047.68 839.337L1033.95 1297.32H937.057Z" fill="#63A486"/>
<path d="M829.264 1288.16L839.826 787.814L938.718 800.409L929.212 1288.16H829.264Z" fill="#63A486"/>
<path d="M724.697 1297.32V787.814L825.758 770.64L819.421 1297.32H724.697Z" fill="#63A486"/>
<path d="M614.849 1316.78V770.64L712.629 776.365L715.797 1308.77L614.849 1316.78Z" fill="#63A486"/>
<path d="M506.281 1324.8V747.741L604.892 754.611V1324.8H506.281Z" fill="#63A486"/>
<path d="M397 1325V733H485.402L497 1325H397Z" fill="#63A486"/>
<path d="M291.697 1338.54L282.19 703.088L382.139 713.392L388.477 1338.54H291.697Z" fill="#63A486"/>
<path d="M180.736 1338.54V676.754L276.573 689.348V1338.54H180.736Z" fill="#63A486"/>
<path d="M79.5061 1347.7L70 655L166.724 664.16L175.174 1358L79.5061 1347.7Z" fill="#63A486"/>
<ellipse cx="12.5" cy="13.5499" rx="12.5" ry="13.5499" transform="matrix(-1 0 0 1 128 713.964)" fill="#120F16"/>
<ellipse cx="12.5" cy="13.5499" rx="12.5" ry="13.5499" transform="matrix(-1 0 0 1 239 734.139)" fill="#120F16"/>
<ellipse cx="12.5" cy="13.5499" rx="12.5" ry="13.5499" transform="matrix(-1 0 0 1 136 1291.37)" fill="#120F16"/>
<ellipse cx="12.5" cy="13.5499" rx="12.5" ry="13.5499" transform="matrix(-1 0 0 1 238 1273.04)" fill="#120F16"/>
<ellipse cx="12.5" cy="13.5499" rx="12.5" ry="13.5499" transform="matrix(-1 0 0 1 348 1278.62)" fill="#120F16"/>
<ellipse cx="12.5" cy="13.5499" rx="12.5" ry="13.5499" transform="matrix(-1 0 0 1 344 742.483)" fill="#120F16"/>
<ellipse cx="12.5" cy="13.5499" rx="12.5" ry="13.5499" transform="matrix(-1 0 0 1 448 761.575)" fill="#120F16"/>
<ellipse cx="12.5" cy="13.5499" rx="12.5" ry="13.5499" transform="matrix(-1 0 0 1 566 790.255)" fill="#120F16"/>
<ellipse cx="12.5" cy="13.5499" rx="12.5" ry="13.5499" transform="matrix(-1 0 0 1 673 809.347)" fill="#120F16"/>
<ellipse cx="12.5" cy="13.5499" rx="12.5" ry="13.5499" transform="matrix(-1 0 0 1 785 823.859)" fill="#120F16"/>
<ellipse cx="12.5" cy="13.5499" rx="12.5" ry="13.5499" transform="matrix(-1 0 0 1 898 850.119)" fill="#120F16"/>
<ellipse cx="12.5" cy="13.5499" rx="12.5" ry="13.5499" transform="matrix(-1 0 0 1 1011 867.463)" fill="#120F16"/>
<ellipse cx="12.5" cy="13.5499" rx="12.5" ry="13.5499" transform="matrix(-1 0 0 1 1119 873.639)" fill="#120F16"/>
<ellipse cx="12.5" cy="13.5499" rx="12.5" ry="13.5499" transform="matrix(-1 0 0 1 1222 899.982)" fill="#120F16"/>
<ellipse cx="12.5" cy="13.5499" rx="12.5" ry="13.5499" transform="matrix(-1 0 0 1 1336 918.41)" fill="#120F16"/>
<ellipse cx="12.5" cy="13.5499" rx="12.5" ry="13.5499" transform="matrix(-1 0 0 1 454 1277.11)" fill="#120F16"/>
<ellipse cx="12.5" cy="13.5499" rx="12.5" ry="13.5499" transform="matrix(-1 0 0 1 565 1259.78)" fill="#120F16"/>
<ellipse cx="12.5" cy="13.5499" rx="12.5" ry="13.5499" transform="matrix(-1 0 0 1 674 1250.36)" fill="#120F16"/>
<ellipse cx="12.5" cy="13.5499" rx="12.5" ry="13.5499" transform="matrix(-1 0 0 1 782 1244.94)" fill="#120F16"/>
<ellipse cx="12.5" cy="13.5499" rx="12.5" ry="13.5499" transform="matrix(-1 0 0 1 890 1227.35)" fill="#120F16"/>
<ellipse cx="12.5" cy="13.5499" rx="12.5" ry="13.5499" transform="matrix(-1 0 0 1 998 1225.01)" fill="#120F16"/>
<ellipse cx="12.5" cy="13.5499" rx="12.5" ry="13.5499" transform="matrix(-1 0 0 1 1104 1234.59)" fill="#120F16"/>
<ellipse cx="12.5" cy="13.5499" rx="12.5" ry="13.5499" transform="matrix(-1 0 0 1 1212 1211.09)" fill="#120F16"/>
<ellipse cx="12.5" cy="13.5499" rx="12.5" ry="13.5499" transform="matrix(-1 0 0 1 1327 1205.67)" fill="#120F16"/>
<line x1="942.792" y1="276.313" x2="1515.87" y2="597.723" stroke="#120F16" stroke-width="30"/>
<circle cx="910.344" cy="255.548" r="86.7341" transform="rotate(165.413 910.344 255.548)" fill="#63A486"/>
<line x1="412.217" y1="513.555" x2="-152.67" y2="849.149" stroke="#120F16" stroke-width="30"/>
<circle cx="446.425" cy="495.836" r="86.7341" transform="rotate(-74.5868 446.425 495.836)" fill="#63A486"/>
</svg>
