<svg width="702" height="920" viewBox="0 0 702 920" fill="none" xmlns="http://www.w3.org/2000/svg">
<path d="M447.349 59.6096L438.603 -39.9226H310.766L300.001 97.9606L107.573 161.206L62.4934 530.587L165.436 560.191L146.597 677.263L45 712.25L60.8555 924.194L701.677 936.332L655.925 716.287L608.827 703.503L559.038 521.84L655.925 465.996L631.703 182.064L447.349 59.6096Z" fill="#120F16"/>
<path d="M309.087 419.571L319.18 -40H403.283L438.27 428.317L309.087 419.571Z" fill="#FF5A00"/>
<path d="M315.816 807.118V777.514L426.832 751.273L434.906 782.896L315.816 807.118Z" fill="#FF5A00"/>
<path d="M338.29 -39.9226C332.251 261.742 324.87 794.484 338.29 936.568M356.405 -39.9226L356.405 936.568M371.838 -39.9226C378.547 212.282 390.893 787.065 386.599 936.568M391.966 -39.9226C404.491 208.082 426.185 776.986 412.766 936.568" stroke="#FAEAD3" stroke-width="3.55861"/>
</svg>
