<svg width="1440" height="820" viewBox="0 0 1440 820" fill="none" xmlns="http://www.w3.org/2000/svg">
<path d="M1171.08 292.166L1172.35 278.886L1035.44 289.9L1034.17 303.179L1099.84 299.739L1098.95 327.591L1113.57 327.462L1112.84 300.256L1171.08 292.166Z" fill="#63A486"/>
<path d="M1351.74 332.427L1349.69 322.552L1217.16 315.122L1215.21 328.017L1281.19 332.781L1280.77 369.46L1296.45 368.84L1296.87 332.16L1351.74 332.427Z" fill="#63A486"/>
<path d="M1025.82 475.824L1852.97 341.651L1863.68 417.817L1423.34 504.966L1478.77 601.465L1516.61 766.327L1453.75 888.68L1234.81 1002.09L872.585 1043.44C843.206 1035.62 673.755 1018.39 673.755 1018.39L589.285 843.427L590.318 719.427L614.346 610.674L427.319 630.57L301.895 692.226L210.995 772.838L158.611 865.903L71.9997 373.51L177.596 451.38L276.665 506.389L419.708 541.079L1025.82 475.824Z" fill="#63A486"/>
<path d="M1415.9 624.14L1358.42 512.726L742.079 590.982L793.625 957.75L1078.13 950.029L1366.83 875.985L1427.5 763.5L1415.9 624.14Z" fill="#120F16"/>
<path d="M749.3 948.445L699.895 596.91L667.066 609.889L644.149 752.916L652.377 887.981L687.087 930.9L749.3 948.445Z" fill="#120F16"/>
<path d="M1315.16 623.123L1315.82 350.882L1254.98 354.726L1255.33 635.042L1315.16 623.123Z" fill="#FAEAD3"/>
<path d="M997.237 341.905L997.189 332.986L885.948 343.389L886.387 355.637L935.474 348.577L938.289 384.375L948.273 383.926L945.459 348.129L997.237 341.905Z" fill="#63A486"/>
<path d="M793.808 402.559L795.641 417.105L782.208 421.917L782.52 403.123L733.712 408.871L732.956 401.007L833.757 386.251L839.084 395.07L793.808 402.559Z" fill="#63A486"/>
<path d="M985.471 503.022L971.767 358.612L917.189 377.215L937.077 526.177L950.783 668.579L1001.96 674.619L994.982 600.81L985.471 503.022Z" fill="#FAEAD3"/>
<path d="M1145.62 470.679L1138.99 319.199L1067.04 325.313L1083.15 500.144L1091.6 611.746L1157.61 620.418L1145.62 470.679Z" fill="#FAEAD3"/>
<path d="M855.393 675.64L817.354 413.574L764.481 418.302L785.906 570.379L805.035 701.291L855.393 675.64Z" fill="#FAEAD3"/>
<path d="M544.199 -8.48054L570.134 -20.2003L576.49 -15.843L552.874 -4.49L588.446 55.3178L576.135 64.9435L562.179 68.7962L552.148 58.9262L557.408 47.4906L573.193 40.1796L544.199 -8.48054Z" fill="#63A486"/>
<path d="M34.4287 673.621L51.0449 678.958L87.1121 583.774L183.309 626.206L139.872 729.802L119.522 728.071L110.729 718.21L114.238 706.423L128.209 700.659L141.637 710.666L168.62 637.201L89.1091 603.469L51.9026 699.097L39.0914 701.036L23.946 694.83L19.2581 683.936L34.4287 673.621Z" fill="#FAEAD3"/>
<path d="M1421.44 -18.1177L1476.88 61.2277L1384.17 122.392L1324.77 38.2751L1340.63 23.9142L1353.46 20.9319L1359.63 30.1654L1354.86 41.2355L1338.21 45.1071L1383.83 105.635L1418.2 83.1753L1371.93 24.9337L1381.35 14.4442L1394.63 4.24247L1405.33 4.36256L1402.45 15.4639L1385.12 30.641L1422.8 79.4974L1462.28 53.4802L1406.09 -24.9811L1415.12 -36.0931L1427.85 -43.5587L1436.72 -41.1158L1433.55 -29.2349L1421.44 -18.1177Z" fill="#FAEAD3"/>
<path d="M626.496 50L652.02 58.0587L653.741 65.0997L630.071 58.2386L603.778 146.856L589.113 145.877L576.918 139.822L576.081 126.613L586.941 121.9L602.588 126.68L626.496 50Z" fill="#FAEAD3"/>
<path d="M1142.88 853.764L1070.33 789.682L1146.06 708.43L1223.58 776.22L1211.53 793.909L1199.77 799.823L1191.59 792.301L1193.63 780.419L1208.9 772.741L1150.33 724.637L1122.2 754.551L1180.87 800.279L1174.18 812.688L1163.68 825.726L1153.25 828.125L1153.43 816.66L1166.71 797.832L1118.6 759.207L1086.35 793.777L1159.41 856.826L1153.24 869.75L1142.62 880L1133.43 879.711L1133.71 867.419L1142.88 853.764Z" fill="#63A486"/>
</svg>
