<svg width="1440" height="820" viewBox="0 0 1440 820" fill="none" xmlns="http://www.w3.org/2000/svg">
<g clip-path="url(#clip0_216_12272)">
<path d="M472.193 698.522C517.436 707.75 553.966 687.221 566.122 656.349L654.157 396.839L915.43 443.868L837.048 677.641C824.539 662.296 804.104 650.052 779.568 645.048C734.324 635.821 692.271 654.702 685.638 687.221C679.006 719.74 710.307 753.582 755.551 762.809C800.794 772.036 837.048 757.206 849.48 720.636L975.522 357.649L667.221 294.943C578.222 552.035 554.635 614.566 553.966 613.695C541.484 598.19 520.928 585.802 496.21 580.761C450.966 571.534 408.913 590.415 402.281 622.934C395.649 655.453 426.949 689.295 472.193 698.522Z" fill="#63A486"/>
<path d="M1237.4 655.141C1283.29 650.008 1311.74 619.24 1313.81 586.126L1317.77 312.119L1580.85 276.521L1578.15 523.07C1561.53 512.314 1538.32 506.949 1513.44 509.733C1467.55 514.866 1433.34 545.765 1437.03 578.747C1440.72 611.73 1480.91 634.306 1526.8 629.173C1572.69 624.039 1602.62 598.779 1603.21 560.158L1611.51 176L1298.87 211.143C1293.24 483.146 1290.03 549.9 1289.13 549.277C1272.48 538.362 1249.11 532.896 1224.04 535.701C1178.15 540.834 1143.94 571.733 1147.63 604.716C1151.32 637.698 1191.51 660.274 1237.4 655.141Z" fill="#63A486"/>
<path d="M822.026 186.879C832.85 184.815 839.054 176.972 838.94 169.054L834.852 103.782L896.796 90.4818L900.682 149.197C896.53 146.943 890.908 146.092 885.038 147.212C874.213 149.276 866.64 157.256 868.124 165.036C869.607 172.817 879.585 177.451 890.41 175.387C901.235 173.323 907.894 166.763 907.324 157.562L902.247 66L828.5 80.1023C832.155 144.928 832.616 160.871 832.39 160.739C828.228 158.448 822.567 157.576 816.653 158.704C805.828 160.768 798.256 168.748 799.739 176.529C801.223 184.309 811.201 188.943 822.026 186.879Z" fill="#FAEAD3"/>
<path d="M935.71 717.727C943.249 718.152 948.676 713.967 949.914 708.684L958.032 664.611L1001.42 666.052L994.259 705.733C991.872 703.545 988.276 702.046 984.187 701.815C976.648 701.391 970.289 705.439 969.983 710.858C969.678 716.277 975.542 721.014 983.082 721.439C990.621 721.864 996.137 718.608 997.286 712.397L1009.11 650.681L957.74 647.813C949.409 691.518 947.068 702.194 946.94 702.069C944.553 699.854 940.935 698.335 936.816 698.103C929.276 697.678 922.917 701.727 922.611 707.146C922.306 712.564 928.17 717.302 935.71 717.727Z" fill="#FAEAD3"/>
<path d="M1365.46 772.093C1374.14 772.582 1380.38 767.769 1381.8 761.693L1391.14 710.999L1441.05 712.656L1432.81 758.298C1430.06 755.781 1425.93 754.057 1421.22 753.792C1412.55 753.303 1405.24 757.96 1404.89 764.193C1404.54 770.426 1411.28 775.875 1419.95 776.363C1428.62 776.852 1434.97 773.107 1436.29 765.963L1449.89 694.976L1390.8 691.678C1381.22 741.948 1378.53 754.227 1378.38 754.084C1375.64 751.537 1371.47 749.789 1366.74 749.522C1358.06 749.033 1350.75 753.69 1350.4 759.923C1350.05 766.156 1356.79 771.605 1365.46 772.093Z" fill="#FAEAD3"/>
<path d="M364.283 482.031C370.488 482.38 374.954 478.936 375.973 474.589L382.655 438.317L418.365 439.503L412.469 472.16C410.505 470.359 407.545 469.125 404.18 468.936C397.975 468.586 392.741 471.918 392.49 476.378C392.239 480.837 397.065 484.736 403.27 485.086C409.475 485.436 414.015 482.756 414.96 477.644L424.692 426.852L382.414 424.492C375.557 460.461 373.631 469.247 373.525 469.144C371.562 467.322 368.583 466.072 365.193 465.881C358.988 465.531 353.755 468.863 353.503 473.322C353.252 477.782 358.078 481.681 364.283 482.031Z" fill="#FAEAD3"/>
<path d="M180.069 759.52C221.518 729.685 237.769 681.394 216.365 651.658L28.7072 390.017C37.4928 397.748 86.2756 423.043 131.089 428.744C183.176 435.372 224.524 465.732 238.452 482.895L253.024 476.092C241.525 457.796 200.796 418.389 129.871 407.128C58.9469 395.867 1.45849 355.409 -18.4202 336.588L-32.9922 343.39L167.083 629.409C146.462 629.417 123.319 636.896 102.56 651.838C61.1104 681.673 44.8597 729.965 66.2632 759.701C87.6666 789.436 138.619 789.355 180.069 759.52Z" fill="#63A486"/>
<path d="M1173.29 198.445C1204.94 201.798 1232.54 186.114 1234.94 163.414L1256.42 -36.0425C1257.29 -28.8033 1269.45 3.20269 1287.89 24.4594C1309.34 49.1666 1315.94 80.4387 1315.28 94.1939L1324.87 97.0851C1327.13 83.8117 1324.57 48.5945 1296.3 13.9129C1268.04 -20.7686 1258.13 -63.4329 1256.71 -80.4299L1247.12 -83.321L1221.29 132.615C1211.71 124.056 1197.85 117.92 1182 116.241C1150.36 112.888 1122.76 128.572 1120.36 151.271C1117.95 173.971 1141.65 195.091 1173.29 198.445Z" fill="#FAEAD3"/>
<path d="M1083.45 386.721C1096.41 388.094 1107.71 381.673 1108.69 372.38L1117.48 290.727C1117.84 293.69 1122.82 306.793 1130.37 315.495C1139.15 325.61 1141.85 338.412 1141.58 344.043L1145.51 345.226C1146.43 339.792 1145.39 325.375 1133.81 311.177C1122.24 296.979 1118.19 279.514 1117.61 272.555L1113.68 271.372L1103.1 359.772C1099.18 356.268 1093.51 353.756 1087.02 353.068C1074.07 351.696 1062.77 358.116 1061.78 367.409C1060.8 376.702 1070.5 385.348 1083.45 386.721Z" fill="#FAEAD3"/>
<path d="M342.739 851.2C355.245 847.556 363.264 837.328 360.649 828.356L337.804 749.472C339.259 752.079 348.834 762.314 359.124 767.5C371.083 773.528 378.44 784.348 380.327 789.66L384.41 789.265C383.203 783.887 376.765 770.945 360.671 762.199C344.577 753.453 334.199 738.831 331.022 732.614L326.939 733.009L350.694 818.811C345.735 817.058 339.534 816.885 333.271 818.711C320.765 822.355 312.746 832.583 315.361 841.555C317.976 850.526 330.233 854.845 342.739 851.2Z" fill="#FAEAD3"/>
<path d="M1169.15 855.129C1186.91 857.011 1202.4 848.209 1203.75 835.469L1215.81 723.528C1216.3 727.59 1223.12 745.553 1233.47 757.483C1245.51 771.35 1249.21 788.9 1248.84 796.62L1254.23 798.243C1255.49 790.793 1254.06 771.028 1238.19 751.564C1222.33 732.1 1216.77 708.155 1215.97 698.616L1210.59 696.993L1196.09 818.183C1190.71 813.38 1182.94 809.936 1174.04 808.994C1156.29 807.112 1140.79 815.914 1139.44 828.654C1138.09 841.394 1151.4 853.247 1169.15 855.129Z" fill="#FAEAD3"/>
</g>
<defs>
<clipPath id="clip0_216_12272">
<rect width="1440" height="820" fill="white"/>
</clipPath>
</defs>
</svg>
