<svg width="1440" height="820" viewBox="0 0 1440 820" fill="none" xmlns="http://www.w3.org/2000/svg">
<path d="M544.199 -8.48054L570.134 -20.2003L576.49 -15.843L552.874 -4.49L588.446 55.3178L576.135 64.9435L562.179 68.7962L552.148 58.9262L557.408 47.4906L573.193 40.1796L544.199 -8.48054Z" fill="#63A486"/>
<path d="M34.4287 673.621L51.0449 678.958L87.1121 583.774L183.309 626.206L139.872 729.802L119.522 728.071L110.729 718.21L114.238 706.423L128.209 700.659L141.637 710.666L168.62 637.201L89.1091 603.469L51.9026 699.097L39.0914 701.036L23.946 694.83L19.2581 683.936L34.4287 673.621Z" fill="#FAEAD3"/>
<path d="M1421.44 -18.1177L1476.88 61.2277L1384.17 122.392L1324.77 38.2751L1340.63 23.9142L1353.46 20.9319L1359.63 30.1654L1354.86 41.2355L1338.21 45.1071L1383.83 105.635L1418.2 83.1753L1371.93 24.9337L1381.35 14.4442L1394.63 4.24247L1405.33 4.36256L1402.45 15.4639L1385.12 30.641L1422.8 79.4974L1462.28 53.4802L1406.09 -24.9811L1415.12 -36.0931L1427.85 -43.5587L1436.72 -41.1158L1433.55 -29.2349L1421.44 -18.1177Z" fill="#FAEAD3"/>
<path d="M626.496 50L652.02 58.0587L653.741 65.0997L630.071 58.2386L603.778 146.856L589.113 145.877L576.918 139.822L576.081 126.613L586.941 121.9L602.588 126.68L626.496 50Z" fill="#FAEAD3"/>
<path d="M1142.88 853.764L1070.33 789.682L1146.06 708.43L1223.58 776.22L1211.53 793.909L1199.77 799.823L1191.59 792.301L1193.63 780.419L1208.9 772.741L1150.33 724.637L1122.2 754.551L1180.87 800.279L1174.18 812.688L1163.68 825.726L1153.25 828.125L1153.43 816.66L1166.71 797.832L1118.6 759.207L1086.35 793.777L1159.41 856.826L1153.24 869.75L1142.62 880L1133.43 879.711L1133.71 867.419L1142.88 853.764Z" fill="#63A486"/>
</svg>
