<svg width="847" height="950" viewBox="0 0 847 950" fill="none" xmlns="http://www.w3.org/2000/svg">
<g clip-path="url(#clip0_202_309)">
<path d="M-49 66.6269V-3H769.14L767.397 79.6979L355.223 85.7978V53.5558L-49 66.6269Z" fill="#FAEAD3"/>
<path d="M355.223 125.011V103.226L782.211 97.9974V178.167H386.594V159.867H96.4164V136.339L355.223 125.011Z" fill="#FAEAD3"/>
<path d="M386.594 231.322V200.823H763.912V269.664L68.5315 274.021V237.422L386.594 231.322Z" fill="#FAEAD3"/>
<path d="M106.873 338.505V298.42L747.355 286.221V367.261H386.594V348.962L106.873 338.505Z" fill="#FAEAD3"/>
<path d="M81.6026 447.887L85.0882 407.803H386.594V389.503L769.14 394.732V467.929L371.78 462.701V436.559L81.6026 447.887Z" fill="#FAEAD3"/>
<path d="M74.6313 539.127V515.6L371.78 505.143V486.843H847.442V558.298L380.875 561.784V539.127H74.6313Z" fill="#FAEAD3"/>
<path d="M91.188 659.381L87.7024 609.711L381.919 618.425V583.569L801.311 577.469V648.924L91.188 659.381Z" fill="#FAEAD3"/>
<path d="M789.165 768.476L784.808 847.774L383.108 848.646V830.346H92.9307V806.818L385.834 795.49V773.705L789.165 768.476Z" fill="#FAEAD3"/>
<path d="M65.0459 953.5V906.158L383.108 901.801V871.302H790.872V953.5H65.0459Z" fill="#FAEAD3"/>
<path d="M106.873 724.076V683.992L809.99 671.792V752.832H386.594V734.533L106.873 724.076Z" fill="#FAEAD3"/>
</g>
<defs>
<clipPath id="clip0_202_309">
<rect width="847" height="950" fill="white"/>
</clipPath>
</defs>
</svg>
