<svg width="728" height="820" viewBox="0 0 728 820" fill="none" xmlns="http://www.w3.org/2000/svg">
<g clip-path="url(#clip0_201_292)">
<path d="M667.762 526.782L-32.1417 498.785L42.4355 -157.316L741.744 -124.805L667.762 526.782Z" fill="#FAEAD3"/>
<path d="M652.622 711.248L645.062 559.612L194.44 549.79L183.249 634.657L173.317 633.347L178.139 554.989L-46.339 543.758L-70.9433 841.792L158.376 872.032L181.999 853.102L273.219 853.152L272.356 797.008L153.793 781.412L156.65 759.744L593.403 832.952L609.9 707.847L652.622 711.248Z" fill="#FAEAD3"/>
<path d="M173.072 633.547L156.405 759.943L123 755.538L139.072 633.656L173.072 633.547Z" fill="#FF5A00"/>
<path d="M604.259 644.479L609.706 707.658L179.075 664.65L184.67 622.217L604.259 644.479Z" fill="#FF5A00"/>
<path d="M703.955 548.857L655.737 -134.309L431.02 -143.734C434.193 -82.1995 429.972 -28.0215 429.972 18.0251C417.095 127.176 365.008 199.237 198.159 249.921C7.55275 307.822 -21.7643 461.882 -12.5971 531.675L703.955 548.857Z" fill="#120F16"/>
<path d="M586.626 682.338L584.672 620.538L561.198 617.443L562.438 684.659L586.626 682.338Z" fill="#120F16"/>
<path d="M544.382 682.278L546.911 642.196L532.466 640.292L527.228 680.016L544.382 682.278Z" fill="#120F16"/>
<path d="M497.742 680.721L500.331 598.394L476.619 597.105L476.074 677.863L497.742 680.721Z" fill="#120F16"/>
<path d="M447.183 674.054L447.51 608.881L426.745 606.143L416.249 671.812L447.183 674.054Z" fill="#120F16"/>
<path d="M389.164 668.24L396.188 614.973L373.617 611.996L366.593 665.264L389.164 668.24Z" fill="#120F16"/>
<path d="M329.289 669.53L333.892 606.758L309.516 603.544L301.301 665.839L329.289 669.53Z" fill="#120F16"/>
</g>
<defs>
<clipPath id="clip0_201_292">
<rect width="728" height="820" fill="white"/>
</clipPath>
</defs>
</svg>
