<svg width="1368" height="720" viewBox="0 0 1368 720" fill="none" xmlns="http://www.w3.org/2000/svg">
<path d="M1099.08 192.166L1100.35 178.886L963.444 189.9L962.173 203.179L1027.84 199.739L1026.95 227.591L1041.57 227.462L1040.84 200.256L1099.08 192.166Z" fill="#63A486"/>
<path d="M1279.74 232.427L1277.69 222.552L1145.16 215.122L1143.21 228.017L1209.19 232.781L1208.77 269.46L1224.45 268.84L1224.87 232.16L1279.74 232.427Z" fill="#63A486"/>
<path d="M953.822 375.824L1780.97 241.651L1791.68 317.817L1351.34 404.966L1406.77 501.465L1444.61 666.327L1381.75 788.68L1162.81 902.094L800.585 943.442C771.206 935.622 601.755 918.391 601.755 918.391L517.285 743.427L518.318 619.427L542.346 510.674L355.319 530.57L229.895 592.226L138.995 672.838L86.6107 765.903L-0.000311157 273.51L105.596 351.38L204.665 406.389L347.708 441.079L953.822 375.824Z" fill="#63A486"/>
<path d="M1343.9 524.14L1286.42 412.726L670.079 490.982L721.625 857.75L1006.13 850.029L1294.83 775.985L1355.5 663.5L1343.9 524.14Z" fill="#120F16"/>
<path d="M677.3 848.445L627.895 496.91L595.066 509.889L572.149 652.916L580.377 787.981L615.087 830.9L677.3 848.445Z" fill="#120F16"/>
<path d="M1243.16 523.123L1243.82 250.882L1182.98 254.726L1183.33 535.042L1243.16 523.123Z" fill="#FAEAD3"/>
<path d="M925.237 241.905L925.189 232.986L813.948 243.389L814.387 255.637L863.474 248.577L866.289 284.375L876.273 283.926L873.459 248.129L925.237 241.905Z" fill="#63A486"/>
<path d="M721.808 302.559L723.641 317.105L710.208 321.917L710.52 303.123L661.712 308.871L660.956 301.007L761.757 286.251L767.084 295.07L721.808 302.559Z" fill="#63A486"/>
<path d="M913.471 403.022L899.767 258.612L845.189 277.215L865.077 426.177L878.783 568.579L929.965 574.619L922.982 500.81L913.471 403.022Z" fill="#FAEAD3"/>
<path d="M1073.62 370.679L1066.99 219.199L995.036 225.313L1011.15 400.144L1019.6 511.746L1085.61 520.418L1073.62 370.679Z" fill="#FAEAD3"/>
<path d="M783.393 575.64L745.354 313.574L692.481 318.302L713.906 470.379L733.035 601.291L783.393 575.64Z" fill="#FAEAD3"/>
</svg>
