<svg width="1301" height="703" viewBox="0 0 1301 703" fill="none" xmlns="http://www.w3.org/2000/svg">
<path d="M1191.43 613.694L1210.44 223.265H1301L1293.61 604.534L1191.43 613.694Z" fill="#63A486"/>
<path d="M1080.47 625.143L1101.6 207.236L1190.76 216.396L1183.36 613.694L1080.47 625.143Z" fill="#63A486"/>
<path d="M971.68 633.158L992.804 184.337L1087.47 199.221L1070.57 625.143L971.68 633.158Z" fill="#63A486"/>
<path d="M867.057 642.317L885.013 160.293L977.68 184.337L963.949 642.317H867.057Z" fill="#63A486"/>
<path d="M759.264 633.158L769.826 132.814L868.718 145.409L859.212 633.158H759.264Z" fill="#63A486"/>
<path d="M654.697 642.318V132.814L755.758 115.64L749.421 642.318H654.697Z" fill="#63A486"/>
<path d="M544.849 661.782V115.64L642.629 121.365L645.797 653.767L544.849 661.782Z" fill="#63A486"/>
<path d="M436.281 669.797V92.7413L534.892 99.611V669.797H436.281Z" fill="#63A486"/>
<path d="M327 670V78H415.402L427 670H327Z" fill="#63A486"/>
<path d="M221.697 683.536L212.19 48.0878L312.139 58.3923L318.477 683.536H221.697Z" fill="#63A486"/>
<path d="M110.736 683.536V21.7538L206.573 34.3483V683.536H110.736Z" fill="#63A486"/>
<path d="M9.50611 692.695L0 0L96.7237 9.15961L105.174 703L9.50611 692.695Z" fill="#63A486"/>
<ellipse cx="12.5" cy="13.5499" rx="12.5" ry="13.5499" transform="matrix(-1 0 0 1 58 58.9636)" fill="#120F16"/>
<ellipse cx="12.5" cy="13.5499" rx="12.5" ry="13.5499" transform="matrix(-1 0 0 1 169 79.1393)" fill="#120F16"/>
<ellipse cx="12.5" cy="13.5499" rx="12.5" ry="13.5499" transform="matrix(-1 0 0 1 66 636.372)" fill="#120F16"/>
<ellipse cx="12.5" cy="13.5499" rx="12.5" ry="13.5499" transform="matrix(-1 0 0 1 168 618.036)" fill="#120F16"/>
<ellipse cx="12.5" cy="13.5499" rx="12.5" ry="13.5499" transform="matrix(-1 0 0 1 278 623.616)" fill="#120F16"/>
<ellipse cx="12.5" cy="13.5499" rx="12.5" ry="13.5499" transform="matrix(-1 0 0 1 274 87.4833)" fill="#120F16"/>
<ellipse cx="12.5" cy="13.5499" rx="12.5" ry="13.5499" transform="matrix(-1 0 0 1 378 106.575)" fill="#120F16"/>
<ellipse cx="12.5" cy="13.5499" rx="12.5" ry="13.5499" transform="matrix(-1 0 0 1 496 135.255)" fill="#120F16"/>
<ellipse cx="12.5" cy="13.5499" rx="12.5" ry="13.5499" transform="matrix(-1 0 0 1 603 154.347)" fill="#120F16"/>
<ellipse cx="12.5" cy="13.5499" rx="12.5" ry="13.5499" transform="matrix(-1 0 0 1 715 168.859)" fill="#120F16"/>
<ellipse cx="12.5" cy="13.5499" rx="12.5" ry="13.5499" transform="matrix(-1 0 0 1 828 195.119)" fill="#120F16"/>
<ellipse cx="12.5" cy="13.5499" rx="12.5" ry="13.5499" transform="matrix(-1 0 0 1 941 212.463)" fill="#120F16"/>
<ellipse cx="12.5" cy="13.5499" rx="12.5" ry="13.5499" transform="matrix(-1 0 0 1 1049 218.639)" fill="#120F16"/>
<ellipse cx="12.5" cy="13.5499" rx="12.5" ry="13.5499" transform="matrix(-1 0 0 1 1152 244.982)" fill="#120F16"/>
<ellipse cx="12.5" cy="13.5499" rx="12.5" ry="13.5499" transform="matrix(-1 0 0 1 1266 263.41)" fill="#120F16"/>
<ellipse cx="12.5" cy="13.5499" rx="12.5" ry="13.5499" transform="matrix(-1 0 0 1 384 622.112)" fill="#120F16"/>
<ellipse cx="12.5" cy="13.5499" rx="12.5" ry="13.5499" transform="matrix(-1 0 0 1 495 604.776)" fill="#120F16"/>
<ellipse cx="12.5" cy="13.5499" rx="12.5" ry="13.5499" transform="matrix(-1 0 0 1 604 595.356)" fill="#120F16"/>
<ellipse cx="12.5" cy="13.5499" rx="12.5" ry="13.5499" transform="matrix(-1 0 0 1 712 589.936)" fill="#120F16"/>
<ellipse cx="12.5" cy="13.5499" rx="12.5" ry="13.5499" transform="matrix(-1 0 0 1 820 572.348)" fill="#120F16"/>
<ellipse cx="12.5" cy="13.5499" rx="12.5" ry="13.5499" transform="matrix(-1 0 0 1 928 570.012)" fill="#120F16"/>
<ellipse cx="12.5" cy="13.5499" rx="12.5" ry="13.5499" transform="matrix(-1 0 0 1 1034 579.592)" fill="#120F16"/>
<ellipse cx="12.5" cy="13.5499" rx="12.5" ry="13.5499" transform="matrix(-1 0 0 1 1142 556.089)" fill="#120F16"/>
<ellipse cx="12.5" cy="13.5499" rx="12.5" ry="13.5499" transform="matrix(-1 0 0 1 1257 550.669)" fill="#120F16"/>
</svg>
